<svg xmlns="http://www.w3.org/2000/svg" version="1.1" viewBox="-5.0 -10.0 110.0 135.0">
 <path d="m23.469 69.305 7.1016 7.1016c8.4961-6.4883 18.199-10.328 32.348-11.812 0.6875-0.015625 1.1797-0.03125 1.8828-0.09375 17.734-1.543 31.035-14.844 32.578-32.57 1.543-17.727-11.578-30.848-29.312-29.301-5.293 0.46094-10.188 1.9688-14.496 4.3281 0.85938 1.7734 1.3438 3.7656 1.3438 5.8672 0 9.0742-8.7773 15.473-17.352 12.879-1.0742 2.9766-1.7812 6.1562-2.0742 9.4922-0.066406 0.75781-0.066406 1.1406-0.078125 1.8789-1.4844 14.152-5.4219 23.758-11.938 32.227zm11.348-64.449c3.8711-3.1406 9.4141-3.1406 13.285 0-3.5938 3.8242-9.6914 3.8242-13.285 0zm-3.9102 8.1992c0-2.2656 0.71484-4.3633 1.9297-6.0859 4.7188 4.8789 12.523 4.8789 17.246 0 2.5664 3.6289 2.5742 8.4961 0.023438 12.137-4.7227-4.9102-12.566-4.9102-17.289 0-1.2031-1.7148-1.9062-3.8008-1.9062-6.0508zm3.8789 8.1758c0.9375-0.95312 1.7891-1.6094 3.0586-2.1602 3.5352-1.5312 7.6406-0.65234 10.262 2.1328 0.007812 0.011719 0.015625 0.019531 0.027343 0.027344-3.8828 3.1719-9.4648 3.1719-13.348 0zm18.426 23.957c-0.11328-0.99219 0.60156-1.8906 1.5938-2.0039 0.99609-0.11328 1.8906 0.60547 2.0039 1.6016 0.11328 0.99219-0.60156 1.8906-1.5938 2.0039-0.99609 0.11328-1.8906-0.60547-2.0039-1.6016zm17.133-28.523c-0.12891-0.99219 0.57422-1.8984 1.5625-2.0234 0.99219-0.12891 1.8984 0.57422 2.0234 1.5625v0.007813c0.12891 0.99219-0.57031 1.8984-1.5625 2.0234-0.99219 0.12891-1.8984-0.57422-2.0234-1.5625zm-22.84 22.84c-0.12891-0.99219 0.57422-1.8984 1.5625-2.0234 0.98828-0.12891 1.8945 0.57422 2.0234 1.5625v0.007812c0.12891 0.98828-0.57031 1.8984-1.5625 2.0234-0.99219 0.12891-1.8984-0.57422-2.0234-1.5625zm34.258-11.434c-0.11719-0.99219 0.58984-1.8945 1.5859-2.0156 0.99219-0.11719 1.8945 0.58984 2.0156 1.5859v0.007813c0.12109 0.99219-0.58984 1.8945-1.582 2.0156-0.99219 0.11719-1.8945-0.58984-2.0156-1.5859v-0.007813zm-22.84 22.852c-0.125-0.99219 0.57812-1.8984 1.5742-2.0234 0.99219-0.125 1.8984 0.57812 2.0234 1.5742v0.007813c0.125 0.99219-0.57812 1.8984-1.5703 2.0234-0.99219 0.125-1.8984-0.57812-2.0234-1.5742v-0.007813zm5.7188-17.148c-0.11719-0.99219 0.59375-1.8867 1.5859-2.0039 0.99219-0.11719 1.8867 0.59375 2.0039 1.5859v0.007812c0.11719 0.99219-0.59375 1.8867-1.582 2.0039-0.99219 0.11719-1.8867-0.59375-2.0039-1.5859v-0.007812zm11.414 11.414c-0.11328-0.99219 0.60156-1.8906 1.5938-2.0039 0.99609-0.11328 1.8906 0.60547 2.0039 1.6016 0.11328 0.99219-0.60156 1.8906-1.5938 2.0039-0.99609 0.11328-1.8906-0.60547-2.0039-1.6016zm-22.84-22.836c-0.11719-0.99219 0.59375-1.8867 1.5859-2.0039 0.99219-0.11719 1.8906 0.59375 2.0039 1.5859v0.007812c0.11719 0.98828-0.59375 1.8867-1.582 2.0039-0.98828 0.11719-1.8867-0.59375-2.0039-1.5859v-0.007813zm5.7109 5.7109c-0.11719-0.98828 0.59375-1.8867 1.582-2.0039 0.99219-0.11719 1.8867 0.59375 2.0039 1.5859v0.007813c0.11719 0.99219-0.59375 1.8867-1.582 2.0039-0.99219 0.11719-1.8867-0.59375-2.0039-1.5859zm11.414 11.406c-0.10938-0.99219 0.60938-1.8867 1.6055-1.9922 0.99609-0.10937 1.8867 0.61328 1.9961 1.6094 0.10938 0.99219-0.60938 1.8867-1.6055 1.9922-0.99609 0.10938-1.8867-0.61328-1.9961-1.6094zm0.011718-11.395c-0.12891-0.99219 0.57422-1.8984 1.5625-2.0234 0.99219-0.12891 1.8984 0.57422 2.0234 1.5625v0.007813c0.12891 0.99219-0.57031 1.8984-1.5625 2.0234-0.99219 0.12891-1.8984-0.57422-2.0234-1.5625zm-9.8555-13.445c0.98828-0.12891 1.8984 0.57422 2.0234 1.5625v0.007813c0.12891 0.98828-0.57031 1.8984-1.5625 2.0234-0.99219 0.12891-1.8984-0.57422-2.0234-1.5625v-0.007812c-0.12891-0.99219 0.57031-1.8984 1.5625-2.0234zm4.1484 7.7461c-0.13281-0.99219 0.5625-1.9023 1.5547-2.0352 0.99219-0.13281 1.9023 0.5625 2.0352 1.5547v0.007813c0.13281 0.98828-0.5625 1.9023-1.5547 2.0352-0.98828 0.13281-1.9023-0.5625-2.0352-1.5547zm11.422 11.422c-0.13281-0.99219 0.5625-1.9023 1.5547-2.0352 0.98828-0.13281 1.9023 0.5625 2.0352 1.5547v0.007813c0.13281 0.99219-0.5625 1.9023-1.5508 2.0352-0.99219 0.13281-1.9023-0.5625-2.0352-1.5547v-0.007813zm-17.125 5.6758c-0.12109-0.99219 0.58984-1.8945 1.582-2.0156 0.99219-0.11719 1.8945 0.58984 2.0156 1.5859v0.007812c0.12109 0.99219-0.58984 1.8945-1.582 2.0156-0.99219 0.11719-1.8945-0.58984-2.0156-1.582zm11.422 11.422c-0.11719-0.99219 0.58984-1.8945 1.5859-2.0156 0.99219-0.12109 1.8945 0.58984 2.0156 1.582v0.007812c0.12109 0.99219-0.58984 1.8945-1.582 2.0156-0.99219 0.11719-1.8945-0.58984-2.0156-1.5859v-0.007813zm-22.836-22.836c-0.12109-0.99219 0.58203-1.8945 1.5742-2.0156 0.98828-0.12109 1.8945 0.58203 2.0156 1.5742v0.007812c0.12109 0.98828-0.58203 1.8945-1.5742 2.0117-0.98828 0.12109-1.8945-0.58203-2.0156-1.5742v-0.007812zm5.7031 5.7148c-0.125-0.99219 0.57812-1.8984 1.5742-2.0234 0.99219-0.125 1.8984 0.57812 2.0234 1.5742v0.007812c0.125 0.99219-0.57812 1.8984-1.5742 2.0234-0.99219 0.125-1.8984-0.57812-2.0234-1.5742zm11.426 11.426c-0.12891-0.99219 0.57422-1.8984 1.5625-2.0234 0.99219-0.12891 1.8984 0.57422 2.0234 1.5625v0.007813c0.12891 0.99219-0.57031 1.8984-1.5625 2.0234-0.99219 0.12891-1.8984-0.57422-2.0234-1.5625zm17.117-5.7148c-0.11719-0.99219 0.58984-1.8945 1.5859-2.0156 0.99219-0.11719 1.8945 0.58984 2.0156 1.582v0.007813c0.12109 0.99219-0.58984 1.8945-1.582 2.0156-0.99219 0.11719-1.8945-0.58984-2.0156-1.582v-0.007813zm-5.7148-17.105c-0.12891-0.99219 0.57422-1.8984 1.5625-2.0234 0.98828-0.12891 1.8984 0.57422 2.0234 1.5625v0.007812c0.12891 0.99219-0.57031 1.8984-1.5625 2.0234-0.99219 0.12891-1.8984-0.57422-2.0234-1.5625zm-43.922 46.723c-0.78516 0.41016-1.6367-0.4375-1.2266-1.2227l7.3672-14.078c0.32031-0.61328 1.1758-0.65625 1.5586-0.082031 1.7109 2.5664 3.8945 4.7461 6.4609 6.4531 0.57422 0.38281 0.53125 1.2383-0.082031 1.5586l-14.086 7.3711zm-4.8047 12.246 1.25-2.8203-7.0977-7.0977-2.8203 1.25c-1.75 0.77734-3.1211 1.7188-4.4766 3.0703l-10.602 10.598c-1.4453 1.4453-1.4453 3.7969 0 5.2422l4.8359 4.8359c1.4414 1.4453 3.7969 1.4453 5.2422 0l10.598-10.602c1.3516-1.3516 2.293-2.7266 3.0703-4.4766z" fill-rule="evenodd"/>
</svg>